<svg id="Layer_1" data-name="Layer 1" xmlns="http://www.w3.org/2000/svg" viewBox="0 0 112.02 128"><defs><style>.cls-1{fill:gray;}</style></defs><path class="cls-1" d="M91,1c.66,2,1.69,3.94,1.91,6a24.19,24.19,0,0,0,22.26,21.93c4.22.34,6,2,5.84,6.19-.19,5.32-.15,10.66,0,16,.11,4.47-2.18,6.26-6.22,5.53-7.14-1.29-14.21-2.95-21.89-4.58,0,4.21,0,9.09,0,14-.12,8.82.45,17.74-.65,26.44-2.31,18.47-14.87,31.52-33,35.64A16,16,0,0,0,57,129H45c-6.6-3-13.88-5-19.67-9.1C11.1,109.79,5.71,91.19,11,74.44a42.39,42.39,0,0,1,37.4-29.25c4.52-.29,6.5,1.46,6.39,6-.13,4.82-.2,9.66,0,14.48.21,4.58-1.12,7-6.25,7.5C42.27,73.73,37.6,79,36.87,85.07a14.11,14.11,0,0,0,7.82,14.84c5.48,2.66,12.91,1.8,16.37-3.13A22.43,22.43,0,0,0,65,84.93c.34-25.47.12-51,.25-76.43,0-2.5,1.15-5,1.77-7.5ZM46.92,53.19c-23.07,2.5-36.79,26.92-27.4,47.91a34.6,34.6,0,0,0,38.26,19.73,34,34,0,0,0,27.33-32.6c.31-14,.06-28,.15-42,0-6.16,2.48-7.45,7.73-4.23,6.12,3.77,12.57,6.45,20.38,6.77a80.26,80.26,0,0,0-.14-9.77,4.57,4.57,0,0,0-2.81-3C97.54,32.49,89.4,24.43,86,11.5c-.3-1.12-1.63-2.66-2.6-2.76C80,8.4,76.56,8.6,72.82,8.6v6.23q0,34.49,0,69a40.16,40.16,0,0,1-.59,7.44A21.7,21.7,0,0,1,51,108.93a22,22,0,0,1-21.54-18C27.47,81.17,33,71,42.51,67c1.48-.62,3-1.16,4.41-1.71Z" transform="translate(-9 -1)"/></svg>